<?xml version="1.0" encoding="UTF-8"?>
<svg width="20px" height="12px" viewBox="0 0 20 12" version="1.1" xmlns="http://www.w3.org/2000/svg" xmlns:xlink="http://www.w3.org/1999/xlink">
    <title>UI/Mail/Default Copy</title>
    <g id="Components" stroke="none" stroke-width="1" fill="none" fill-rule="evenodd">
        <g id="UI/Mail/Default-Copy" transform="translate(0.800000, 0.600000)" fill="#7EBCC6">
            <path d="M1.6,9.2 L1.6,2.3904 L8.723,7.6796 C8.8646,7.7848 9.0322,7.8374 9.2,7.8374 C9.3676,7.8374 9.5352,7.7848 9.6768,7.6796 L16.8,2.3904 L16.8,9.2 L1.6,9.2 Z M15.1808,1.6 L9.2,6.041 L3.2192,1.6 L15.1808,1.6 Z M18.3982,0.7828 C18.3976,0.753 18.3932,0.7234 18.3894,0.6938 C18.3862,0.6708 18.3846,0.6476 18.3796,0.6252 C18.3738,0.5998 18.3646,0.5752 18.3562,0.5502 C18.348,0.525 18.3408,0.4996 18.33,0.4754 C18.3208,0.4548 18.3084,0.4352 18.2972,0.415 C18.2826,0.3888 18.2686,0.3624 18.2512,0.338 C18.2478,0.3332 18.2458,0.3278 18.2422,0.323 C18.2314,0.3084 18.218,0.2972 18.2062,0.2834 C18.1876,0.2618 18.1694,0.24 18.1486,0.2202 C18.1294,0.202 18.109,0.1866 18.0884,0.1706 C18.0682,0.1548 18.0484,0.1392 18.0266,0.1254 C18.0042,0.1112 17.9806,0.0994 17.957,0.0876 C17.9344,0.0762 17.912,0.0648 17.8882,0.0556 C17.8632,0.046 17.8376,0.039 17.8116,0.0318 C17.7876,0.0252 17.7642,0.0184 17.7394,0.014 C17.71,0.0088 17.6806,0.007 17.6508,0.0052 C17.6336,0.004 17.6174,0 17.6,0 L0.8,0 C0.7824,0 0.7658,0.004 0.7484,0.0052 C0.719,0.0072 0.6898,0.009 0.6608,0.014 C0.6358,0.0184 0.612,0.0254 0.588,0.032 C0.5622,0.0392 0.5368,0.046 0.512,0.0556 C0.488,0.0648 0.4656,0.0762 0.443,0.0876 C0.4192,0.0996 0.3958,0.1112 0.3734,0.1254 C0.3516,0.1392 0.3318,0.1548 0.3116,0.1706 C0.291,0.1866 0.2706,0.202 0.2514,0.2202 C0.2306,0.24 0.2124,0.2618 0.1938,0.2834 C0.1822,0.2972 0.1686,0.3084 0.1578,0.323 C0.1542,0.3278 0.1522,0.3332 0.1488,0.338 C0.1314,0.3624 0.1174,0.3886 0.1028,0.415 C0.0916,0.4352 0.0792,0.4548 0.07,0.4756 C0.0594,0.4996 0.0522,0.525 0.0438,0.55 C0.0356,0.575 0.0262,0.5998 0.0204,0.6252 C0.0154,0.6476 0.0138,0.6708 0.0108,0.6938 C0.0068,0.7234 0.0024,0.753 0.0018,0.7828 C0.0016,0.7886 0,0.794 0,0.8 L0,10 C0,10.4418 0.3582,10.8 0.8,10.8 L17.6,10.8 C18.0418,10.8 18.4,10.4418 18.4,10 L18.4,0.8 C18.4,0.794 18.3984,0.7886 18.3982,0.7828 L18.3982,0.7828 Z" id="mail"></path>
        </g>
    </g>
</svg>