<svg xmlns="http://www.w3.org/2000/svg" width="58" height="58" fill="none" fill-rule="evenodd" xmlns:v="https://vecta.io/nano"><path d="M29.169 57.838c15.833 0 28.669-12.836 28.669-28.669S45.003.5 29.169.5.5 13.336.5 29.169s12.835 28.67 28.669 28.67" fill="#7ebcc6"/><path d="M41.237 41.5H32v-8.292c0-4.653.523-8.114 1.566-10.386 1.311-2.819 3.522-4.925 6.628-6.322L42 21.311c-1.821.737-3.14 1.774-3.955 3.111s-1.24 3.178-1.265 5.525h4.457V41.5zm-16 0H16v-8.292c0-4.68.596-8.291 1.787-10.837s3.327-4.503 6.405-5.871L26 21.311c-1.808.737-3.124 1.774-3.946 3.111s-1.262 3.178-1.314 5.525h4.498V41.5z" stroke="#fff" stroke-width="1.498"/></svg>